<?xml version="1.0" encoding="UTF-8" standalone="no"?>
<svg
   height="26"
   width="26"
   version="1.1"
   id="svg3"
   sodipodi:docname="SanityCheck_ES-Pruebas-img005.svg"
   inkscape:version="1.3.2 (091e20e, 2023-11-25, custom)"
   xmlns:inkscape="http://www.inkscape.org/namespaces/inkscape"
   xmlns:sodipodi="http://sodipodi.sourceforge.net/DTD/sodipodi-0.dtd"
   xmlns="http://www.w3.org/2000/svg"
   xmlns:svg="http://www.w3.org/2000/svg">
  <defs
     id="defs3" />
  <sodipodi:namedview
     id="namedview3"
     pagecolor="#ffffff"
     bordercolor="#000000"
     borderopacity="0.25"
     inkscape:showpageshadow="2"
     inkscape:pageopacity="0.0"
     inkscape:pagecheckerboard="0"
     inkscape:deskcolor="#d1d1d1"
     showgrid="false"
     inkscape:zoom="25.65625"
     inkscape:cx="15.980512"
     inkscape:cy="16"
     inkscape:window-width="1920"
     inkscape:window-height="1017"
     inkscape:window-x="-8"
     inkscape:window-y="-8"
     inkscape:window-maximized="1"
     inkscape:current-layer="svg3" />
  <rect
     style="fill:#f6f1d2;stroke:#ffffff;stroke-width:0;fill-opacity:1"
     id="rect3"
     width="26"
     height="26"
     x="0"
     y="0" />
  <g
     id="g3"
     transform="matrix(0.78571429,0,0,0.78571429,0.42857142,0.42857142)">
    <path
       d="M 16,2 2,30 h 28 z"
       fill="#ed8733"
       id="path1" />
    <path
       d="M 16,4.2363281 3.6171875,29 H 28.382812 Z"
       fill="#f8db8f"
       id="path2" />
    <path
       d="m 16,10 c -1.104569,0 -2,0.895431 -2,2 0,2 0.666667,3.666667 1.333333,9 h 1.333334 C 17.333333,15.666667 18,14 18,12 18,10.895431 17.104569,10 16,10 Z m 0,13 c -1.104569,0 -2,0.895431 -2,2 0,1.104569 0.895431,2 2,2 1.104569,0 2,-0.895431 2,-2 0,-1.104569 -0.895431,-2 -2,-2 z"
       fill="#3a3a38"
       id="path3" />
  </g>
</svg>
